<svg width="36" height="34" viewBox="0 0 36 34" fill="none" xmlns="http://www.w3.org/2000/svg">
<path d="M32.774 0.260498H3.41024C2.58309 0.260498 1.88231 0.677852 1.3079 1.51256C0.733493 2.34727 0.446289 3.31039 0.446289 4.40193V29.0579C0.446289 30.1495 0.733493 31.1126 1.3079 31.9473C1.88231 32.782 2.58309 33.1994 3.41024 33.1994H32.774C33.6011 33.1994 34.3019 32.782 34.8763 31.9473C35.4507 31.1126 35.7379 30.1495 35.7379 29.0579V4.40193C35.7379 3.31039 35.4507 2.34727 34.8763 1.51256C34.3019 0.677852 33.6011 0.260498 32.774 0.260498ZM30.0168 4.40193L18.0921 14.2258L6.16739 4.40193H30.0168ZM3.41024 29.0579V6.90606L17.3339 18.5599C17.4258 18.6883 17.6785 18.7525 18.0921 18.7525C18.5057 18.7525 18.7584 18.6883 18.8503 18.5599L32.774 6.90606V29.0579H3.41024Z" fill="white"/>
</svg>
