<svg width="37" height="36" viewBox="0 0 37 36" fill="none" xmlns="http://www.w3.org/2000/svg">
<path d="M33.3096 0.0842285H3.69106C2.12499 0.0842285 0.854492 1.35473 0.854492 2.92079V32.5393C0.854492 34.1054 2.12499 35.3759 3.69106 35.3759H33.3096C34.8756 35.3759 36.1461 34.1054 36.1461 32.5393V2.92079C36.1461 1.35473 34.8756 0.0842285 33.3096 0.0842285ZM33.3096 32.5525C13.5551 32.5481 3.67782 32.5437 3.67782 32.5393C3.68223 12.7848 3.68665 2.90756 3.69106 2.90756C23.4456 2.91197 33.3228 2.91638 33.3228 2.92079C33.3184 22.6753 33.314 32.5525 33.3096 32.5525ZM6.08648 13.3142H11.3229V30.1571H6.08648V13.3142ZM8.70688 11.0114C10.3788 11.0114 11.742 9.65267 11.742 7.97632C11.742 7.57775 11.6635 7.18308 11.5109 6.81485C11.3584 6.44661 11.1348 6.11203 10.853 5.83019C10.5712 5.54836 10.2366 5.3248 9.86836 5.17227C9.50012 5.01974 9.10545 4.94124 8.70688 4.94124C8.30831 4.94124 7.91364 5.01974 7.54541 5.17227C7.17717 5.3248 6.84259 5.54836 6.56076 5.83019C6.27892 6.11203 6.05536 6.44661 5.90283 6.81485C5.75031 7.18308 5.6718 7.57775 5.6718 7.97632C5.66739 9.65267 7.02612 11.0114 8.70688 11.0114ZM19.837 21.8239C19.837 19.627 20.2561 17.5007 22.9779 17.5007C25.6601 17.5007 25.6998 20.0108 25.6998 21.965V30.1571H30.9318V20.9195C30.9318 16.3846 29.9524 12.8951 24.6543 12.8951C22.1089 12.8951 20.4016 14.2935 19.7002 15.617H19.6296V13.3142H14.605V30.1571H19.837V21.8239Z" fill="white" fill-opacity="0.9"/>
</svg>
